<?xml version="1.0"?>
<svg xmlns="http://www.w3.org/2000/svg" version="1.2" baseProfile="tiny" width="800" height="298" viewBox="0 0 800 298" stroke-linecap="round" stroke-linejoin="round">
<g id="Provinsi">
<path d="M 427.12 121.17 430.59 118.25 430.55 114.93 431.43 108.79 432.68 106.86 432.98 102.66 432.05 100.62 433.01 98.12 435.51 97.53 435 94.96 436.04 93.55 438.96 92.23 439.01 89.81 441.64 92.7 444.7 92.96 445.75 90.13 448.37 88.53 449.01 86.05 448.73 83.43 450.38 82.9 453.8 83.6 456.48 85.08 459.33 85.84 460.78 87.49 463.26 88.16 468.18 87.3 469.16 88.68 470.62 87.97 472.78 88.41 470.12 89.31 468.6 90.68 467.02 89.24 465.69 90.12 460.62 91.86 455.84 92.7 454.93 94.81 457.27 96.53 457.89 98.21 457.05 97.82 453.46 99.52 452.53 98.8 450.27 99.55 446.78 97.57 443.51 97.52 439.98 99.18 436.87 103.61 436.46 106.71 435.29 107.76 434.94 111.5 435.98 114.06 435.74 117.34 436.69 119.3 440.11 123.19 441.86 122.47 444.89 125.75 444.63 128.22 446.44 130.98 449.36 130.02 449.79 130.97 453.77 131.38 455.61 127.94 460.37 122.05 462.19 121.48 465.25 123.28 468.47 123.72 471.14 123.12 472.89 120.11 478.47 120.03 480.08 119.65 482.13 120.49 483.38 117.43 486.54 117.23 487.72 116.21 491.27 116.48 493.24 117.52 494.47 119.82 492.81 124.37 491.39 124.55 489.16 122.52 486.28 122.08 483.32 122.76 483.23 123.77 480.32 127.88 478 129.95 476.14 132.37 473.2 134.21 469.74 134.52 465.96 136.6 464.91 139.2 463.78 140.19 461.72 140.38 458.53 137.75 457.56 140.03 461.3 142.2 461.61 144.04 464.64 144.63 467.74 148.59 469.67 152.35 469.57 153.62 471.82 154.83 472.99 156.74 474.95 157.1 473.75 158.95 476.02 161.01 476.8 162.83 474.77 163.22 474.81 161.33 472 159.16 470.06 159.39 467.43 158.67 463.67 156.75 463.73 155.67 465.65 152.26 462.97 149.9 460.18 148.34 456.01 147.52 454.38 148.21 453.92 146 449.57 145 447.61 145.33 444.32 141.55 443.05 142.57 442.01 140.76 439.75 141.8 437.85 140.54 434.67 140.39 432.48 141.45 432.51 137.36 431.18 136.62 429.05 133.26 428.55 130.81 426.42 131.3 425 130.34 427.39 126.87 427.12 121.17 Z M 484.67 134.2 483.03 131.54 483.8 128.59 486.12 127.43 489.98 126.38 490.99 127.68 490.1 129.43 491 130.55 493.03 127.72 496.33 128.59 495.61 131.65 493.82 132.94 491.88 130.93 489.92 132.7 488.69 129.11 487.01 132.33 484.67 134.2 Z M 495.18 136.04 495.01 133.28 497.51 134.6 496.7 136.36 495.18 136.04 Z" fill-rule="evenodd" id="72"/>
<path d="M 427.12 121.17 427.39 126.87 425 130.34 426.42 131.3 428.55 130.81 429.05 133.26 431.18 136.62 432.51 137.36 432.48 141.45 430.34 144.98 429.14 145.98 430.32 150.43 430.36 153.53 427.41 154.2 427.18 158.38 428.36 160.39 424.1 162.25 424.96 163.28 425.61 167.19 422.34 165.93 421.48 166.9 418.53 167.2 416.47 168.07 414.82 165.25 414.44 161.43 415.41 156.94 413.41 156.17 413.56 153.17 417.38 151.78 418.12 149.96 419.79 149.39 419.54 146.92 421.08 141.08 423.53 139.34 422.33 135.24 423.06 133.71 422.4 131.59 423.17 129.82 423.24 127.12 425.02 125.58 427.12 121.17 Z" id="76"/>
<path d="M 442.36 213.88 442.44 209.83 443.91 207.84 444.58 211.51 443.83 214.38 442.36 213.88 Z M 425.61 167.19 424.96 163.28 424.1 162.25 428.36 160.39 427.18 158.38 427.41 154.2 430.36 153.53 430.32 150.43 429.14 145.98 430.34 144.98 432.48 141.45 434.67 140.39 437.85 140.54 439.75 141.8 442.01 140.76 443.05 142.57 444.32 141.55 447.61 145.33 449.57 145 453.92 146 454.38 148.21 456.01 147.52 460.18 148.34 462.97 149.9 465.65 152.26 463.73 155.67 463.67 156.75 460.73 157.5 458.82 158.74 453.49 154.55 452.23 156.16 453.7 153.67 448.86 151.87 446.27 152.43 442.47 155.48 438.07 157.83 439.27 159.88 439.17 161.28 441.35 162 442.34 171.43 440.69 173.97 440.58 177.43 441.33 178.87 440.75 183.21 441.85 187.86 441.37 190.36 440.03 190.89 439.52 196.07 442.51 201.42 436.98 203.39 433.51 202.67 431.08 205.35 428.61 205.01 424.86 202.01 423.65 200.31 424.09 195.93 425.68 194.2 426.49 191.87 425.91 189.12 427.71 185.56 428.42 181.34 427.94 175.53 426.73 174.13 425.35 169.65 425.61 167.19 Z" fill-rule="evenodd" id="73"/>
<path d="M 692.69 180.21 695.61 176.69 696.36 174.6 695.14 172.92 694.99 170.95 696.81 170.48 698.1 168.82 694.53 168.64 693.27 166.12 690.46 165.12 689.2 163.01 687.49 155.09 688.81 154.25 689.24 157.91 691.53 158.69 692.27 162.82 694.41 164.16 700.7 165.23 702.84 164.95 704.35 163.68 705 161.85 707.86 160.31 710.89 157.04 711.06 154.72 712.2 153.38 712.87 154.51 715.55 155.02 717.03 156.53 717.88 158.97 722.02 159.62 721.33 161.18 721.83 162.89 723.54 162.39 727.39 162.98 727.66 161.22 730.04 162.15 731.25 160.8 735.37 160.05 737.04 160.34 738.9 159.37 741.54 159.15 742.97 159.93 745.99 159.04 746.79 161.69 748.04 162.66 747.26 165.55 747.97 168.66 751.53 169.77 751.78 171.54 750.38 173.84 747.82 173.67 745.99 174.77 746.31 177.94 745.36 178.65 742.09 177.93 742.05 179.63 746.16 179.69 745.49 183.21 744.32 183.19 743.71 185.23 745.35 186.12 742.67 187.07 744.87 189.37 743.63 192.87 741.08 196.96 736.22 195.07 735.23 194.16 730.09 191.86 725.68 191.07 721.49 189.55 717.66 187.4 713.87 186.58 710.75 184.39 707.16 184.46 700.68 183.33 698.27 183.91 695.37 182.35 692.69 180.21 Z" id="91-D"/>
<path d="M 653.06 144.58 654.71 142.35 653.53 140.84 655.06 139.1 656.07 136.38 656.33 133.74 658.44 130.07 660.01 129.94 664.6 127.13 666.47 127.64 667.37 126.37 668.43 119.28 674.18 119.41 676.85 118.92 678.58 120.55 677.55 123.15 679.17 126.09 682.12 129.62 680.78 131.69 680.84 133.32 678.53 135.49 679.78 141.16 679.14 142.38 680.02 146.18 681.08 148.43 683.18 150.66 685.3 156.11 686.43 154.87 685.35 151.42 686.58 148.93 688.46 149.91 688.81 154.25 687.49 155.09 689.2 163.01 690.46 165.12 693.27 166.12 694.53 168.64 698.1 168.82 696.81 170.48 694.99 170.95 695.14 172.92 696.36 174.6 695.61 176.69 692.69 180.21 690.07 179.42 688.25 177.87 689.59 174.42 686.12 176.59 684.95 174.43 682.17 175.95 678.06 172.06 676.37 173.16 675.75 170.71 674.56 169.44 673.03 169.68 670.37 167.66 666.84 171.24 667.93 173.39 664.38 177.08 658.58 177.27 657.21 175.57 655.3 169.54 657.71 169.67 658.62 168.46 656.84 166.19 656.69 163 654.2 163.96 653.88 161.83 648.55 157.44 646.46 157.12 644.2 157.78 642.96 156.59 645.17 152.65 648.34 152.59 652.93 153.19 655.33 155.07 658.47 152.65 662.2 148.72 664.78 148.55 666.5 149.93 666.6 152.52 671.51 151.93 673.96 152.35 674.34 148.85 676.61 149.23 676.44 142.55 670.76 145.14 667.35 145.11 663.12 144.5 659.33 146.19 657.6 145.43 655.08 146.29 653.06 144.58 Z" id="92-A"/>
<path d="M 457.89 98.21 457.27 96.53 454.93 94.81 455.84 92.7 460.62 91.86 465.69 90.12 467.02 89.24 468.6 90.68 470.12 89.31 472.78 88.41 473.76 89.04 477.62 89.06 484.26 92.17 487.07 90.22 488.82 90.38 491.41 92.5 490.98 93.71 495.96 96.45 496.22 98.75 494.92 100.87 491.35 100.83 487.8 97.65 486.53 98.02 481.53 98.07 476.27 97.41 474.05 98.2 471.53 97.88 466.14 99.14 464.41 97.42 462.8 96.93 461.02 97.85 457.89 98.21 Z" id="75"/>
<path d="M 91.27 93.2 90.24 92.17 90.75 90.19 90.06 85.23 89.06 82.48 93.34 81.84 95.44 80.65 95.35 77.71 93.14 75.21 93.69 71.07 94.59 67.84 93.51 65.56 93.71 62.22 94.14 64.29 95.76 67.23 97.97 69.02 101.36 70.23 101.31 67.37 102.06 66.61 106.26 66.67 106.78 67.99 110.72 70.99 111.62 75.44 112.27 76.7 114.62 77.85 118.66 77.63 120.59 79.33 125.54 82.79 126.41 85.8 126.77 89.16 129.79 92.28 131.42 93.35 134.5 93.32 138.65 94.05 141.78 97.84 143.52 98.19 145.76 96.98 147.27 97.37 151.93 100.82 152.98 102.14 154.16 106.28 148.33 108.2 148.98 109.93 151.21 110.34 153.28 111.64 150.24 113.38 149.54 115.16 147.71 115.77 147.17 117.66 147.77 119.12 145.36 119.71 140.18 119.52 136.34 124.18 133.74 125.93 131.01 125 127.61 122.32 122.55 121.72 119.73 123.39 117.56 122.66 113.24 119.7 110.91 117.42 106.62 115.16 105.33 111.91 102.77 112.37 101.55 110.12 101.06 107.33 102.72 106.54 102.74 102.55 102.25 101.91 99.35 102.9 97.82 101.14 96.22 100.97 95.57 99.1 92.92 99.28 91.56 95.56 91.27 93.2 Z M 132.66 93.11 130.36 92.1 129.91 90.95 133 89.05 135.51 88.69 137.98 89.89 140.92 92.12 140.03 94.47 137.64 92.65 132.66 93.11 Z M 138.29 89.75 135.39 88.39 136.14 86.31 139.8 87.51 142.78 90.9 141.36 91.99 138.29 89.75 Z M 131.29 89.48 130.76 87.95 132.09 86.82 133.32 88.99 131.29 89.48 Z M 126.69 84.86 126.49 81.89 127.85 81.92 131.19 84.94 130.39 87.84 131.17 89.9 129.6 90.58 127.57 88.98 126.69 84.86 Z M 124.84 81.09 123.25 79.72 123.91 78.59 130.76 80.08 131.6 84.52 127.74 81.56 124.84 81.09 Z M 112.75 74.84 112.35 71.65 114.56 71.1 116.83 69.56 118.96 72.04 118.2 75.7 116.19 77.1 113.32 76.47 112.75 74.84 Z M 143.69 97.4 142.51 96.57 143.69 94.24 145.24 95.59 143.69 97.4 Z" fill-rule="evenodd" id="14"/>
<path d="M 760.9 247.76 762.21 251.94 756.43 251.35 758.42 248.19 760.9 247.76 Z M 741.79 252.39 740.43 252.56 741.38 248.53 742.95 246.14 744.36 242.68 747.24 238.6 750.49 236.01 753.93 234.9 758.32 234.24 760.08 234.4 762.97 237.37 765.39 237.74 763.62 242.85 762.21 243.54 762.07 245.64 760.57 247.56 758.51 247.79 757.32 249.56 754.88 251.26 751.9 252.03 744.18 251.91 741.79 252.39 Z M 758 223.46 760.46 224.98 759.2 225.87 758 223.46 Z M 741.08 196.96 743.63 192.87 744.87 189.37 742.67 187.07 745.35 186.12 748.2 185.67 750 188.21 752.31 187.42 753.6 189.92 756.56 189.6 757.56 188.26 761.22 188.46 763.1 190.34 766.9 190.33 765.34 192.95 772.63 193.22 774.03 194.1 785.76 194.21 786.47 195.88 788.86 197.14 794.11 198 798.66 199.16 798.65 216.13 797.76 219.09 796.17 221.67 796.87 225.18 799 226.02 798.99 245.24 798.99 264.77 796.73 264.02 792.14 259.52 790.08 256.01 784.69 251.28 781.22 248.7 780.46 247 776.51 246.96 772.81 248.32 769.88 248.81 767.86 246.88 765.41 247.61 762.66 250.04 761.52 248.48 762.39 246.76 762.66 243.62 764.21 242.82 764.32 240.89 765.72 237.25 763.43 236.93 761.69 233.39 758.53 231.88 758.9 229.18 756.45 226.72 760.47 225.31 760.95 222.62 758.52 221.08 754.25 216.96 753.52 213.48 751.09 209.22 747.98 205.97 746.95 202.01 744.29 199.26 742.54 199.25 741.08 196.96 Z" fill-rule="evenodd" id="91-C"/>
<path d="M 261.49 243.3 263.7 240.72 264.03 239.12 266.69 239.26 269.14 237.28 270.63 241.72 275.04 242.06 274.52 245.66 275.9 248.76 273.89 248.7 267.94 246.48 267.4 245.77 261.49 243.3 Z" id="34"/>
<path d="M 75.59 134.91 75 137.59 71.74 137.41 68.79 135.63 67.41 132.78 63.92 127.69 64.97 123.46 69.23 122.2 69.87 125.17 70.84 125.82 72.5 130.07 73.65 131.2 74.16 133.6 75.59 134.91 Z M 90.29 155.63 88.34 155.77 88.34 152.86 87.57 151.29 88.09 149.86 91.05 152.33 91.97 154.14 90.29 155.63 Z M 84.88 146.42 84.59 147.56 80.35 144.74 80.98 141.57 83 142.71 83.53 144.69 84.88 146.42 Z M 92.58 159.36 91.39 158.3 91.19 155.24 94.28 156.76 96.23 159.31 94.88 161.95 92.58 159.36 Z M 91.27 93.2 91.56 95.56 92.92 99.28 95.57 99.1 96.22 100.97 97.82 101.14 99.35 102.9 102.25 101.91 102.74 102.55 102.72 106.54 101.06 107.33 101.55 110.12 102.77 112.37 105.33 111.91 106.62 115.16 110.91 117.42 113.24 119.7 117.56 122.66 119.73 123.39 119.6 127.56 118.05 127.85 118.08 129.94 117.24 132.42 113.89 135.03 109.2 136.36 107.72 136.39 107.86 139.38 109.98 142.9 110.54 146.14 105.85 149.43 103.55 146.77 102.43 144.21 103.39 141.91 103.01 139.62 99.19 134.32 96.63 128.96 94.43 125.94 94.82 124.25 94.08 121.83 90.15 117.36 89.58 116.02 85.01 111.65 83.76 108.77 83.76 107.09 81.51 105.29 77.7 103.8 77.04 102.46 73.7 102.47 74.1 101.08 76.3 100.63 77.94 97.99 79.68 97.08 82.04 97.04 83.24 98.6 86.54 98.24 87.43 96.56 85.54 94.57 85.3 90.98 87.15 91.1 89.47 92.78 91.27 93.2 Z" fill-rule="evenodd" id="13"/>
<path d="M 204.67 212.09 206.48 212.64 208.92 212.11 208.97 213.82 207.64 216.99 205.62 216.03 205.24 215.35 205.23 215.35 204.01 213.53 204.67 212.09 Z" id="31"/>
<path d="M 574.25 249.29 572.68 249.52 569.79 248.42 569.69 247.04 572.44 247.78 574.25 249.29 Z M 535.37 245.36 535.68 243.58 537.79 239.37 541.94 240.5 544.31 239.95 546.86 238.11 549.79 238.39 552.72 239.64 548.22 242.18 546.75 244.8 544.46 243.75 541.67 243.91 539.94 243.29 535.37 245.36 Z M 562.18 239.17 562.76 236.44 564.51 237.41 562.18 239.17 Z M 575.55 171.97 573.34 172.04 571.94 170.96 573.87 168.74 576.46 168.59 577.83 167.07 579.24 167.2 579.37 169.52 577.95 171.13 575.55 171.97 Z M 580.66 169.46 580.53 167.84 582.03 167.39 582.75 169.13 580.66 169.46 Z M 550.7 173.43 547.76 172.27 542.74 169.21 539.95 166.72 538.83 164.69 539.01 161.5 540.25 160.45 542.56 161.66 543.78 160.18 552.38 159.51 555.76 160.89 557.96 162.57 556.89 164.31 560.52 164.96 559.91 169.93 556.92 170.44 555.27 171.83 550.7 173.43 Z M 621.78 251.22 622.3 249.65 624.12 248.69 625.93 246.57 627.77 248.03 621.78 251.22 Z M 600.79 243.36 602.4 241.53 605.34 242.47 605.73 243.61 604.43 245.98 602.37 245.43 600.79 243.36 Z M 571.55 166.98 572.37 164.57 571.17 161.84 574.89 158.8 576.61 156.18 583.25 155.95 587.88 156.16 591.84 155.18 592.92 157.95 596.67 156.05 597.23 154.83 601.4 155.05 605.95 156.7 608.46 158.47 614.67 158.27 618.42 161.04 619.53 165.43 621.98 165.54 623.29 168.59 622.45 169.92 622.21 173.25 618.59 172.11 615.25 169.45 608.38 166.88 607.33 164.71 604.69 164.06 599.79 163.65 600.03 166.63 597.71 165.72 595.68 165.66 592.13 164.4 590.31 164.74 590.11 162.41 588.24 162.16 583.68 165.87 580.38 165.92 577.97 162 576.04 159.68 574.94 160.74 574.25 164.49 571.55 166.98 Z M 631.11 244.43 630.56 245.63 627.14 245.17 626.73 243.07 628.42 240.46 628.56 238.12 629.55 236.06 631.69 234.36 634.34 230.87 635.45 230.08 637.62 230.38 636.32 232.28 637.07 235.92 636.77 237.44 634.96 240.26 631.65 242.99 631.11 244.43 Z M 655.53 209.68 654.17 208.78 654.96 204.11 656.7 207.08 655.53 209.68 Z M 657.45 210.41 659.07 204.96 660.19 204.13 661.99 198.24 663.33 198.65 661.78 203.58 659.36 206.08 659.33 208.02 657.45 210.41 Z M 681.68 225.97 680.73 226.7 678.56 224.87 679.07 219 679.65 216.33 679.09 213.84 681.06 214.34 683.22 217.28 685.33 218.07 686.53 220.63 683.69 224.11 681.68 225.97 Z M 685.29 215.32 686.59 216.46 685.7 218.3 683.92 217.46 685.29 215.32 Z M 683.26 210.99 683.78 207.91 683.3 205.82 685.18 202.75 689.22 206.61 689.29 207.65 683.26 210.99 Z M 682.31 212.99 682.2 211.37 684.96 210.79 686.64 209.12 688.84 210.11 690.91 212.16 689.98 215.77 686.92 216.64 684.99 214.42 683.31 214.33 682.31 212.99 Z M 687.71 203.04 686.11 202.78 686 200.47 688.57 200.82 687.71 203.04 Z M 686.74 204.22 686.93 202.92 690.3 203.94 689.55 205.48 688.02 205.73 686.74 204.22 Z" fill-rule="evenodd" id="81"/>
<path d="M 126.21 200.39 125.62 198.21 129.4 199.88 129.01 201.96 126.21 200.39 Z M 105.85 149.43 110.54 146.14 115.09 148.91 115.32 150.63 117.2 150.38 118.86 152.39 121.17 153.97 123.9 154.46 125.07 156.31 126.67 157.28 127 158.82 129.49 159.24 131.13 160.31 131.36 163.14 133.51 164.2 136.48 163.64 138.6 165.03 139.92 164.88 140.03 167.59 138.51 169.18 136.83 167.68 136.14 170.77 134.24 172.68 136.51 175.07 139.76 176.58 138.71 177.45 141.15 179.21 147.94 181.9 147.17 184.52 148.5 185.84 150.4 184.91 153.82 189.35 150.45 191.84 145.8 189.86 145.05 188.16 142.79 186.28 138.46 184.35 136.59 181.99 127.63 175.16 128.12 174.01 126.9 170.35 124.43 168.25 116.25 162.73 112.62 157.45 111.01 153.89 107.93 152.04 105.85 149.43 Z" fill-rule="evenodd" id="17"/>
<path d="M 150.45 191.84 153.82 189.35 156.78 191.63 159.56 191.87 160.77 190.81 163.58 190.59 162.68 186.92 163.03 183.78 165.25 181.01 168.21 179.75 171.18 180.46 175.63 178.29 177.25 174.67 179.59 173.69 181.91 171.96 184.71 174.08 186.08 177.34 189.01 178.56 188.89 181.04 190.2 183.44 190.61 187.06 189.71 190.01 190.38 191.85 189.63 194.45 189.76 197.61 188.95 199.29 189.09 203.22 188.47 207.19 187.82 208.33 185.26 207.59 184.04 204.83 181.86 203.97 179.82 200.94 179.16 202.95 177.68 203.7 178.22 205.64 177.37 207.22 170.92 203.69 169.73 202.24 167.92 201.79 166.68 202.66 168.68 205.34 170.09 209.37 167.72 209.46 167.2 208.17 162.85 203.45 159.53 201.12 155.89 195.37 152.44 192.54 150.45 191.84 Z" id="18"/>
<path d="M 692.8 126.2 691.12 123.5 693.66 123.19 694.36 125 692.8 126.2 Z M 702.85 119.26 701.79 117.71 706.1 118.06 707.58 119.32 705.81 121.82 702.85 119.26 Z M 703.31 135.57 705.79 134.65 715.16 135.15 719.01 136.28 725.77 136.65 722.71 138.74 716.37 139.33 711.79 138 710.49 136.89 706.97 135.75 703.31 135.57 Z M 708.07 121.62 707.38 119.49 708.74 118.32 712.89 121.32 715.29 124.56 716.41 124.09 717.46 126.22 714.34 127.24 712.62 126.33 709.54 126.67 708.07 121.62 Z M 712.2 153.38 715.89 151.74 717.85 147.45 717.95 145.64 719.44 144.67 722.5 145.52 724.99 145.51 728.27 143.36 731.21 143.06 733.29 142.11 730.97 137.77 736.17 135.22 737.62 134.17 742.3 132.08 745.52 131.72 745.78 133.05 752.67 136.12 758.49 137.72 760.57 139.94 764 140.72 768.29 143 778.04 147.7 783.31 146.95 785.2 148.29 788 148.06 793.34 149.43 793.91 152.13 798.68 151.62 798.73 162.51 798.67 176.17 796.79 175.16 791.97 176.86 790.13 176.71 788.47 173.82 792.31 175.43 793.73 174.4 793.24 172.25 790.76 171.51 786.89 171.38 786.01 170.11 784.38 170.77 776.88 167.94 776.12 169.44 774.26 170.72 772.98 169.9 772.2 166.45 770.16 166.87 766.43 165.87 764.51 163.43 762.69 165.24 761.94 162.43 759.59 161.56 758.14 163.86 756.79 162.35 757.32 159.48 756.57 157.8 753.77 157.25 751.6 158.77 748.14 159 748.04 162.66 746.79 161.69 745.99 159.04 742.97 159.93 741.54 159.15 738.9 159.37 737.04 160.34 735.37 160.05 731.25 160.8 730.04 162.15 727.66 161.22 727.39 162.98 723.54 162.39 721.83 162.89 721.33 161.18 722.02 159.62 717.88 158.97 717.03 156.53 715.55 155.02 712.87 154.51 712.2 153.38 Z" fill-rule="evenodd" id="91-A"/>
<path d="M 148.15 95.2 146.22 93.46 147.24 91.74 148.95 93.21 148.15 95.2 Z M 156.49 88.93 156.11 86.6 157.7 85.74 159.87 86.15 159.75 88.48 158.04 89.42 156.49 88.93 Z M 161.94 114.69 165.73 112.25 167.84 114.56 166.26 116.76 164.36 116.84 161.94 114.69 Z M 161.43 88.16 161.7 86.99 164.39 85.57 166.66 85.98 168.4 87.17 168.89 90.1 167.1 92.31 165.04 90.66 163.93 88.89 161.43 88.16 Z M 166.6 111.1 164.89 110.54 167.18 106.1 170.21 108.99 172.89 110.33 171.95 111.9 169.64 109.98 166.6 111.1 Z M 228.54 40.08 226.59 38.02 226.31 36.77 230.75 34.59 233.74 37.75 233.64 40.02 232.07 42.74 229.29 42.94 228.54 40.08 Z" fill-rule="evenodd" id="21"/>
<path d="M 367.27 260.38 365.48 260.91 364.46 259.83 366.29 258.46 366.57 254.46 365.97 252.98 370.08 249.49 371.46 248.9 376.68 250.24 377.85 251.28 376.22 255.72 373.98 259.37 375.28 260.7 372.28 261.5 367.27 260.38 Z M 381.84 263.58 378.22 262.53 378.15 260.27 379.49 259.46 378.76 256.15 380.01 254.58 383.06 253.57 385.42 251.56 389.55 253.43 390.11 252.54 392.56 252.34 393.64 254.82 395.84 255.5 396.67 257.85 399.62 258.07 400.73 256.91 404.82 256.56 404.81 255.43 401.9 253.83 399.82 253.32 397.13 251.7 395.07 249.45 395.56 247.94 398.75 246.63 401.47 246.98 404.92 251.57 406.8 250.94 408.07 249.56 411.26 250.26 412.22 252.02 414.53 250.12 417.47 250.69 418.26 253.31 418.02 256.37 416.31 259.67 413.06 259.04 407.88 260.59 406.65 259.64 406.2 257.12 403.28 260.05 401.29 259.83 398.26 261.24 394.46 261.28 389.5 263.5 385.8 263.01 385.08 264.05 382.89 264.43 381.84 263.58 Z M 394.62 248.48 393.31 249.38 391.89 252 391.09 248.47 392.43 247.74 394.62 248.48 Z" fill-rule="evenodd" id="52"/>
<path d="M 119.73 123.39 122.55 121.72 127.61 122.32 131.01 125 133.74 125.93 136.34 124.18 140.18 119.52 145.36 119.71 147.77 119.12 151.01 122.28 154.59 123.96 158 123.82 160.95 124.99 164.28 125.1 164.26 127.55 165.34 129.54 165.03 132.53 165.96 135.37 164.48 134.7 157.84 136.85 151.04 138.37 149.16 139.51 149.89 141.42 149.55 143.63 148.1 144.21 147.72 147.07 145.34 144.98 143.78 146.69 142.18 147.27 138.26 146.64 138.03 148.49 136.26 150.74 132.85 152.9 130.92 153.35 127.49 151.97 126.89 153.1 123.9 154.46 121.17 153.97 118.86 152.39 117.2 150.38 115.32 150.63 115.09 148.91 110.54 146.14 109.98 142.9 107.86 139.38 107.72 136.39 109.2 136.36 113.89 135.03 117.24 132.42 118.08 129.94 118.05 127.85 119.6 127.56 119.73 123.39 Z" id="15"/>
<path d="M 346.8 253.43 343.44 252.11 340.93 252.2 338.52 249.04 339.31 246.91 345.69 248.65 347.78 248.38 350.84 246.35 353.96 247.18 357.74 249.25 360.4 252.18 358.13 254.16 354.49 255.21 350.99 258.38 350.47 256.79 346.8 253.43 Z" id="51"/>
<path d="M 277.03 248.9 277.92 246.47 280.69 246.33 281.43 243.89 283.37 244.1 284.02 242.43 283.52 240.68 281.92 239.88 280.83 235 281.36 232.4 282.61 232.28 285.21 233.8 289.36 230.29 289.41 224.98 290.74 223.62 293.13 224.42 295.41 223.73 296.87 225.81 303.42 225.53 306.21 225.96 307.36 228.24 307.08 229.59 307.96 231.8 309.25 231.29 310.75 232.84 310.67 236.17 311.74 238.75 314.29 239.29 315.29 240.39 318.22 241.46 321.83 240.01 326.43 240.65 329.54 240.05 331.56 238.45 332.5 240.07 334.88 239.99 338.6 241.83 336.67 252.85 338.08 255.73 340.49 256.63 339.97 258.78 337.99 258.23 336.16 256.01 334.57 256.43 329.18 255.29 325.7 253.59 322.47 252.67 317.54 250.19 313.14 250.81 311.19 252.32 307.73 252.96 303.77 252.14 301.69 251 294.45 250.5 292.54 249.67 290.6 251.74 283.45 249.55 281.28 250.08 277.03 248.9 Z M 308.08 230.57 307.77 229.17 310.96 226.04 321.81 226.09 330.18 225.68 332.54 226.8 331.78 227.94 329.37 228.63 327.56 230.2 325.16 229.78 323.62 230.3 322.94 231.92 319.07 231.6 315.16 231.86 311.08 230.7 308.08 230.57 Z M 354.2 226.88 352.68 227.78 351.59 226.79 352.3 224.9 354.9 225.02 354.2 226.88 Z" fill-rule="evenodd" id="35"/>
<path d="M 605.08 138.17 608.19 136.66 613.79 135.66 615.7 138.12 612.64 142.06 610.42 142.09 605.61 140.7 603.35 139.4 605.08 138.17 Z M 620 121.88 615.79 122.02 617.84 120.2 620 121.88 Z M 621.05 127.89 619.03 123.44 623.99 121.85 625.9 122.26 626.76 124.35 626.12 127.96 624.71 130 622.86 129.74 621.05 127.89 Z M 612.06 109.93 612.91 108.38 619.1 107.37 621.8 106.53 627.66 107.65 630.76 109.63 630.65 111.7 629.64 113.02 627.13 112.02 624.35 112.36 621.49 109.12 619.4 109.07 620.94 111.49 624.14 112.15 623.94 113.25 620.63 114.05 620.06 111.63 618.1 111.94 617.29 110.9 613.97 110.86 612.06 109.93 Z M 668.43 119.28 667.37 126.37 666.47 127.64 664.6 127.13 660.01 129.94 658.44 130.07 656.33 133.74 656.07 136.38 655.06 139.1 653.53 140.84 654.71 142.35 653.06 144.58 651.81 144.51 647.83 145.82 646.73 144.42 643.38 142.36 641.45 139.07 641.25 136.27 640.15 133.66 637.39 133.27 638.17 131.46 634.02 131.92 632.34 131.29 628.95 132.85 628.21 131.81 625.29 131.71 625.77 128.73 628.41 127.61 629.67 125.21 630.06 122.35 629.44 120.84 634.16 119.09 635.03 119.71 639.99 118.7 644.32 114.76 647.28 113.05 649.97 112.4 655.55 113.23 664.09 116.93 666.92 119.29 668.43 119.28 Z" fill-rule="evenodd" id="92-B"/>
<path d="M 45.03 90.71 43.24 89.97 41.8 86.49 38.75 82.71 42.12 80.74 44.61 80.86 48.07 85.95 50 86.45 52.53 89.65 51.83 90.84 51.73 95.49 50.38 96.57 48.44 96.69 47.13 92.63 45.03 90.71 Z M 59.7 115.91 60.13 112.39 62.51 112.68 62.22 115.04 59.7 115.91 Z M 63.89 104.81 64.12 103.29 67.3 103.46 66.54 105.15 63.89 104.81 Z M 57.86 31.99 56.55 34.52 62.85 36.81 63.17 38.07 65.49 38.99 66.88 41.67 69.97 42.65 75.86 46.07 79.27 48.4 80.28 50.12 83.92 51.46 85.21 53.33 87.99 55.41 87.87 58.57 92.19 60.58 93.71 62.22 93.51 65.56 94.59 67.84 93.69 71.07 93.14 75.21 95.35 77.71 95.44 80.65 93.34 81.84 89.06 82.48 90.06 85.23 90.75 90.19 90.24 92.17 91.27 93.2 89.47 92.78 87.15 91.1 85.3 90.98 85.54 94.57 87.43 96.56 86.54 98.24 83.24 98.6 82.04 97.04 79.68 97.08 77.94 97.99 76.3 100.63 74.1 101.08 73.7 102.47 72.65 96.37 71.81 93.55 70.71 92.18 69.3 87.09 66.63 79.9 68.02 78.19 65.14 76.14 61.42 71.87 58.19 70.96 55.68 68.78 56.88 66.29 55.17 63.4 55.27 59.89 54.34 57.46 52.59 56.2 52.26 53.42 53.14 53 51.93 50 53.98 48.63 52.58 47.61 51.85 44.74 50.01 41.84 53.58 38.73 54.72 32.68 57.86 31.99 Z" fill-rule="evenodd" id="12"/>
<path d="M 466.65 199 465.92 198.08 466.63 195.06 468.66 194.23 470.55 197.24 470.19 201.06 468.35 200.78 466.65 199 Z M 452.23 156.16 452.23 156.16 453.49 154.55 458.82 158.74 460.73 157.5 463.67 156.75 467.43 158.67 470.06 159.39 472 159.16 474.81 161.33 474.77 163.22 473.75 165.73 474.22 168.08 472.77 169.03 475.3 171.4 477.08 171.5 479.65 175.38 480.8 175.96 481.15 178.59 484.75 177.97 485.09 179.87 484.57 183.09 481.11 184.22 479.6 182.71 473.19 184.15 470.95 185.3 469.99 187.31 470.52 190.65 469.25 191.33 466.2 190.31 463.91 190.6 461.59 189.24 460.21 187.49 461.31 180.75 462.75 178.45 462.61 176.98 458.47 175.87 454.99 172.79 453.5 170.87 450.48 168.49 449.71 166.04 453.02 161.68 453.61 157.14 452.23 156.16 Z M 475.13 200.05 474.04 199.82 474.73 195.74 476 194.71 475.97 192.63 474.9 190.26 480.98 186.42 482.21 187.1 482.01 190.69 482.66 191.43 479.58 195.96 480.46 197.76 478.41 200.78 475.13 200.05 Z M 479.32 202.49 479.17 201.55 482.1 197.38 484.21 189.48 484.42 184.96 485.81 183.24 487.51 183.21 489.16 184.29 490.41 188.22 487.2 189.08 486.89 191.55 485.95 193.43 487.46 195.64 490.49 198.41 489.04 200.08 486.99 200.89 486.22 200.06 484.06 201.68 484.91 202.98 483.3 205.26 480.42 205.25 479.32 202.49 Z M 485.7 177.63 486.94 175.45 490.47 176.18 491.02 177.99 488.81 180.36 486.65 179.35 485.7 177.63 Z" fill-rule="evenodd" id="74"/>
<path d="M 425.43 252.78 426.92 254.54 424.14 255.17 425.43 252.78 Z M 423.14 275.82 420.24 275.47 417.85 274.3 416.14 272.14 416.79 270.95 420.06 269.25 422.62 268.79 424.23 269.23 428.34 268.59 431.37 269.43 433.6 267.38 436.08 270.64 438.37 271.1 438.98 273.59 443.01 273.45 445.07 275.27 446.5 278.21 449.39 280.44 447.59 283.18 442.6 285.38 440.74 284.25 437.63 284.06 434.63 280.58 432.11 278.56 429.66 277.56 429.03 276.14 425.75 275.51 423.14 275.82 Z M 434.89 259.42 431.28 258.48 431.33 255.19 432.66 253.56 436.69 252.84 438.21 250.54 441.79 250.12 444.46 250.46 445.68 249.94 447.48 251.3 451.66 251.26 451.88 252.04 457.39 253.56 459.3 255.51 461.01 255.92 462.55 253.81 467.89 253.84 471.21 254.45 474.52 256.38 477.68 255.72 479.84 252.05 482.66 251.54 484.5 250.33 484.39 246.34 486.25 247.59 487.07 250.71 485.23 250.93 483.59 255.59 481.13 256.03 478.74 257.41 475.92 258.29 471.39 257.89 469.93 259.02 465.47 260.55 462.31 259.2 458.79 258.92 457.99 260.94 455 260.64 452.58 261.83 451.13 261.54 449.24 259.63 447.8 260.73 445.1 259.4 441.13 259.43 438.75 259.88 437.69 258.98 434.89 259.42 Z M 465.14 290.58 467.84 287.21 469.33 289.02 467.22 290.67 465.14 290.58 Z M 483.82 296.08 483.42 293.51 487.45 292.6 489.8 290.99 491.28 288.99 493.12 288.24 494.09 291.33 491.09 292.69 490 294.46 486.52 294.87 483.82 296.08 Z M 486.7 252.29 487.21 250.65 490.36 249.13 492.5 249.82 491.49 252.1 486.7 252.29 Z M 495.65 285.84 495.99 282.96 499.56 281.65 498.71 280.13 496.74 278.96 498.33 276.95 498.4 273.49 502.88 269.93 503.96 268.52 505.75 269.69 507.8 268.93 509.15 271.14 511.63 268.32 512.33 265.64 514.72 265.25 518.19 262.63 520.11 262.01 521.38 263.71 523.4 262.06 524.51 262.96 524.41 265.6 521.62 265.53 521.12 266.95 522.75 269.36 520.47 274.41 518.73 275.4 517.06 277.89 513.27 280.47 510.9 282.89 507 282.64 504.33 284.69 498.91 286.3 495.65 285.84 Z M 491.73 254.75 492.47 252.24 494.25 251.6 495.05 249.53 496.68 250.23 498.83 249.65 500.09 248.21 502.55 249.72 499.82 250.39 498.34 252.69 497.33 252.56 493.42 255.37 491.73 254.75 Z M 505.81 254.68 503.42 251.31 505.06 250.32 506.34 251.22 508.86 248.29 509.27 250.97 507.72 253.24 505.81 254.68 Z M 512.2 252.78 511.06 250.77 511.02 248.97 512.23 247.53 514.41 247.38 518.15 248.09 523.07 247.85 523.52 251.11 515.43 252.02 512.2 252.78 Z" fill-rule="evenodd" id="53"/>
<path d="M 336.85 166.52 336.81 164.53 338.3 162.69 338.09 161.6 340.21 159.66 339.5 158.48 341.11 155.28 343.96 153.63 344.51 151.58 346.95 148.79 352.37 144.81 355.72 140.13 353.64 139.26 353.48 137.59 354.28 134.06 356.18 131.31 361.23 129.2 360 131.53 358.8 132.24 359.61 136.04 360.69 137.61 360.12 141.83 362.07 142.19 361.69 144.9 363.56 146.93 369.49 146.49 375.03 148.22 371.8 152.55 371.82 155.32 370.08 158.53 367.23 157.05 369.01 160.72 368.42 162.86 365.95 164.8 364.82 169.07 362.83 169.33 359.43 171.38 348.43 175.95 343.23 178.69 341.87 178.86 341.19 172.48 341.4 169.74 339.16 167.15 336.85 166.52 Z M 367.14 176.88 366.08 176.22 366.82 172.94 365.45 169.55 367.38 163.83 369.87 162.12 369.79 165.22 370.78 166.39 370.68 173.84 367.14 176.88 Z M 372.39 168.81 370.84 168.05 371.39 166.32 372.94 165.8 372.39 168.81 Z" fill-rule="evenodd" id="63"/>
<path d="M 15.42 60.7 14.07 58.53 14.79 56.16 20.4 58.73 23.5 61.77 26.67 63.46 26.5 66.03 24.35 65.44 20.2 61.89 17.81 61.8 15.42 60.7 Z M 57.86 31.99 54.72 32.68 53.58 38.73 50.01 41.84 51.85 44.74 52.58 47.61 53.98 48.63 51.93 50 53.14 53 52.26 53.42 52.59 56.2 54.34 57.46 55.27 59.89 55.17 63.4 56.88 66.29 55.68 68.78 52.64 67.04 51.22 67.46 48.89 66.29 47.59 64.49 47.43 60.23 46.79 57.26 43.39 55.42 41.62 53.42 40.55 50.47 39.08 49.9 36.19 44.9 34.05 42.62 32.26 41.56 28.07 41.68 25.3 39.34 22.13 35.2 19.18 33.39 14.56 28.46 11.56 25.91 8.97 23 7.85 19.1 5.52 14.73 6.23 10.13 8.97 8.28 10.08 9.18 12.07 8.78 16.88 10.95 17.35 12.25 20.23 14.6 23.33 15.09 25.62 16.03 28.03 16.23 33.15 14.9 36.52 15.26 39.65 17.2 44.76 15.34 47.37 18.38 50.19 20.86 51.8 21.56 53.41 25.96 54.68 27.53 57.53 28.98 57.86 31.99 Z" fill-rule="evenodd" id="11"/>
<path d="M 274.14 158.42 274.52 157.47 278.09 156.05 281.77 153.06 280.48 149.23 280.76 146.81 279.19 145.05 280.27 141.93 277.87 138.85 279 137.34 278.66 135.06 276.55 134.55 278.87 132.52 283.27 131.24 285.69 128.34 288.77 126.71 288.65 124.8 289.87 123.22 292.99 122.18 297.06 119.76 299.13 119.02 300.13 117.07 301.47 118.94 304.08 118.04 304.8 118.58 308.01 117.78 308.97 116.37 310.51 116.45 315.42 114.63 317.2 115.21 318.12 113.79 317.24 112.21 319.15 109.05 321.1 107.54 320.59 104.41 318.87 103.47 318.4 102.1 321.22 101.85 323.58 100.16 324.89 97.88 328.01 95.01 329.38 95.25 332.88 94.36 334.27 97.06 337.06 97.23 341.11 95.46 342.16 94.31 347.1 93.02 348.31 96.03 350.46 99.04 350.24 100.01 346.39 100.91 345.13 103.1 343.03 105.14 346.71 108.17 346.7 110.48 348.28 111.06 349.24 109.01 352.94 107.22 352.13 112.73 354.68 116.36 353.07 120.22 354.6 121.62 357.69 121.35 361.36 126.17 361.23 129.2 356.18 131.31 354.28 134.06 353.48 137.59 353.64 139.26 355.72 140.13 352.37 144.81 346.95 148.79 344.51 151.58 343.96 153.63 341.11 155.28 339.5 158.48 340.21 159.66 338.09 161.6 338.3 162.69 336.81 164.53 336.85 166.52 335.16 165.48 331.51 164.48 327.03 166.47 323.58 166.22 324.34 164.25 323.81 161.36 321.22 161.79 319.25 163.25 316.33 159.68 313.61 159.06 312.47 160.26 312.35 162.41 305.85 166.23 301.91 163.95 299.19 164.45 294.19 167.91 292.73 167.69 292.97 164.98 292.59 162.02 292.87 158.5 290.72 157.47 288.37 158.67 285.9 156.81 284.5 156.96 281.08 158.8 278.37 159.63 275.3 158.08 274.14 158.42 Z" id="62"/>
<path d="M 745.35 186.12 743.71 185.23 744.32 183.19 745.49 183.21 746.16 179.69 742.05 179.63 742.09 177.93 745.36 178.65 746.31 177.94 745.99 174.77 747.82 173.67 750.38 173.84 751.78 171.54 751.53 169.77 747.97 168.66 747.26 165.55 748.04 162.66 748.14 159 751.6 158.77 753.77 157.25 756.57 157.8 757.32 159.48 756.79 162.35 758.14 163.86 759.59 161.56 761.94 162.43 762.69 165.24 764.51 163.43 766.43 165.87 770.16 166.87 772.2 166.45 772.98 169.9 774.26 170.72 776.12 169.44 776.88 167.94 784.38 170.77 786.01 170.11 786.89 171.38 790.76 171.51 793.24 172.25 793.73 174.4 792.31 175.43 788.47 173.82 790.13 176.71 791.97 176.86 796.79 175.16 798.67 176.17 798.66 199.16 794.11 198 788.86 197.14 786.47 195.88 785.76 194.21 774.03 194.1 772.63 193.22 765.34 192.95 766.9 190.33 763.1 190.34 761.22 188.46 757.56 188.26 756.56 189.6 753.6 189.92 752.31 187.42 750 188.21 748.2 185.67 745.35 186.12 Z" id="91-B"/>
<path d="M 181.69 143.32 180 143.81 178.69 142.26 176.66 141.53 177.61 139.91 181.24 138.03 180.72 135.94 182.94 133.52 185.26 132.97 186.83 137.33 187.61 135.7 187.7 133 190.55 133.01 192.48 134.87 194.67 138.8 195.17 143.63 196.22 146.82 198.31 149.22 204.21 150.54 204.39 152.29 202.58 156.03 202.44 157.62 204.74 159.03 204.87 159.99 200.75 159.59 199.56 158.04 196.91 156.78 191.54 155.27 190.17 152.2 190.98 149.47 188.7 147.5 188.38 144.01 185.04 143.27 184.13 142.51 181.69 143.32 Z M 220.99 162.19 219.17 158.45 219.84 157.31 220.05 153.32 220.85 150.84 223.63 150.32 228.28 151.62 231.45 154.16 231.87 156.38 230.36 158.78 229.43 161.45 227.88 162.63 226.05 161.26 223.94 161.2 220.99 162.19 Z" fill-rule="evenodd" id="19"/>
<path d="M 136.83 167.68 138.51 169.18 140.03 167.59 139.92 164.88 138.6 165.03 136.48 163.64 133.51 164.2 131.36 163.14 131.13 160.31 129.49 159.24 127 158.82 126.67 157.28 125.07 156.31 123.9 154.46 126.89 153.1 127.49 151.97 130.92 153.35 132.85 152.9 136.26 150.74 138.03 148.49 138.26 146.64 142.18 147.27 143.78 146.69 145.34 144.98 147.72 147.07 148.1 144.21 149.55 143.63 149.89 141.42 149.16 139.51 151.04 138.37 157.84 136.85 164.48 134.7 165.96 135.37 165.99 135.43 166.13 135.59 165.63 139.62 168.04 141.23 171.79 141.2 173.16 144.25 171.29 145.84 173.22 146.97 176.65 147.56 178.3 146.8 179.93 147.61 183.24 147.85 185.76 148.7 185.36 151.5 186.23 152.7 188.33 153.1 188.52 156.54 190.09 157.89 192.93 158.4 193.57 163.02 190.67 165.15 189.32 168.04 189.18 170.81 191.36 173.27 189.01 178.56 186.08 177.34 184.71 174.08 181.91 171.96 179.59 173.69 177.25 174.67 175.63 178.29 171.18 180.46 168.21 179.75 165.25 181.01 163.03 183.78 162.68 186.92 163.58 190.59 160.77 190.81 159.56 191.87 156.78 191.63 153.82 189.35 150.4 184.91 148.5 185.84 147.17 184.52 147.94 181.9 141.15 179.21 138.71 177.45 139.76 176.58 136.51 175.07 134.24 172.68 136.14 170.77 136.83 167.68 Z" id="16"/>
<path d="M 204.67 212.09 204.01 213.53 205.23 215.35 205.24 215.35 205.62 216.03 205.44 216.81 199.5 216.57 199.1 218.41 199.55 222.34 200.2 223.57 198.92 226.16 198.99 227.51 196.23 226.69 191.98 224.66 184.11 225.7 179.28 223.77 181.28 221.89 183.56 223.21 185.49 221.23 186.05 218.88 188.6 219.03 189.08 214.68 190.05 211.87 192.04 210.1 196 210.75 198.18 209.91 200.53 211.37 203.35 210.63 204.67 212.09 Z" id="36"/>
<path d="M 494.92 100.87 496.22 98.75 495.96 96.45 490.98 93.71 491.41 92.5 488.82 90.38 496.33 91.03 502.96 91.95 507.57 89.25 509.19 88.91 510.69 85.95 514.04 85.81 513.27 82.96 515.85 82.18 518.65 79.97 518.02 79.08 521.33 76.08 523.67 77.49 525.63 80.15 522.72 82.72 521.78 86.6 519.5 89.1 516.46 90.99 512.68 96.82 511.85 98.64 497.34 101.22 494.92 100.87 Z M 530.01 46.26 529.7 43.87 530.17 41.83 533.09 46.97 531.88 47.92 530.01 46.26 Z M 550.69 37.05 550.32 36.2 552.39 32.85 550.5 31.22 551.5 27.59 553.55 28.63 553.4 30.29 554.5 32.33 552.7 34.12 552.41 36.72 550.69 37.05 Z" fill-rule="evenodd" id="71"/>
<path d="M 340.54 81.68 341.33 79.09 342.97 78.02 342.99 74.84 344.45 74.37 346.01 71.19 344.59 67.43 346.64 67.3 347.18 66.24 352.43 62.33 350.05 61.6 350.12 57.22 352.38 54.98 356.49 54.06 357.49 48.16 358.63 45.51 357.97 42.56 359.87 34.36 364.16 30.88 366.66 32.22 368.19 30.52 371.44 30.25 373.7 31.77 375.19 30.23 377.56 31.23 386.2 31.21 389.19 32.07 390.84 34.01 390.33 36.79 391.39 38.54 394.33 39.12 396.86 41.86 395.46 43.42 392.73 43.37 391.76 42.68 386.66 43.9 387.16 46.21 388.89 46.58 389.93 48.53 388.53 51.29 394.7 55.09 396.34 58.74 396.81 61.15 399.86 64.17 395.24 65.71 393.36 62.7 387.41 63.35 383.58 62.22 382.21 64.02 380.05 62.71 377.79 64.93 375.06 63.8 373.29 66.92 371.6 66.61 371.46 68.63 369.22 70.12 368.61 74.39 367.72 77.48 365.51 79.97 362.88 81.54 361.33 84.58 358.39 84.18 355.48 85.21 354.67 87.03 352.28 85.94 350.19 85.84 348.37 83.04 346.38 81.81 343.27 83.64 340.54 81.68 Z M 387.11 44.18 391.49 45.74 390.74 46.58 386.74 45.75 387.11 44.18 Z M 392.88 49.28 392.24 46.7 394.28 47.17 392.88 49.28 Z M 395.69 36.23 394.33 37.6 392.95 35.63 394.33 34.52 395.69 36.23 Z M 398.76 35.96 397.66 36.52 394.58 34.13 398.35 34.13 398.76 35.96 Z" fill-rule="evenodd" id="65"/>
<path d="M 328.01 95.01 329.47 91.83 328.53 90.55 328.89 88.73 330.49 86.7 332.96 86.36 334.31 81.96 337.93 80.2 340.48 81.55 340.5 81.58 340.54 81.68 343.27 83.64 346.38 81.81 348.37 83.04 350.19 85.84 352.28 85.94 354.67 87.03 355.48 85.21 358.39 84.18 361.33 84.58 362.88 81.54 365.51 79.97 367.72 77.48 368.61 74.39 369.22 70.12 371.46 68.63 371.6 66.61 373.29 66.92 375.06 63.8 377.79 64.93 380.05 62.71 382.21 64.02 383.58 62.22 387.41 63.35 393.36 62.7 395.24 65.71 399.86 64.17 401.77 66.79 400.25 68.25 394.69 68.59 395.11 70.29 396.82 71.91 398.84 75.1 400.9 75.49 402.06 77.76 407.12 80.63 407.51 82.13 410.12 82.93 413.33 85.61 413.63 86.84 417.2 88.69 416.78 90.07 413.85 92.52 411.81 91.56 409.54 92.4 401.19 90.75 399.8 88.08 398.28 87.91 400.55 91.97 398.12 92.01 395.77 93.3 394.99 95.62 393.15 98.17 391.89 102.6 391.15 103.43 391.71 106.97 389.97 110.71 390.61 114.19 389.88 115.78 387.95 117.64 387.05 122.17 385.47 123.24 382.74 127.26 380.73 128.58 378.59 128.82 378.62 130.06 374.76 131.84 375.07 134.22 370.83 136 373.34 139.9 373.34 142.21 372.23 142.57 372.35 144.85 374.32 144 375.73 144.65 375.03 148.22 369.49 146.49 363.56 146.93 361.69 144.9 362.07 142.19 360.12 141.83 360.69 137.61 359.61 136.04 358.8 132.24 360 131.53 361.23 129.2 361.36 126.17 357.69 121.35 354.6 121.62 353.07 120.22 354.68 116.36 352.13 112.73 352.94 107.22 349.24 109.01 348.28 111.06 346.7 110.48 346.71 108.17 343.03 105.14 345.13 103.1 346.39 100.91 350.24 100.01 350.46 99.04 348.31 96.03 347.1 93.02 342.16 94.31 341.11 95.46 337.06 97.23 334.27 97.06 332.88 94.36 329.38 95.25 328.01 95.01 Z" id="64"/>
<path d="M 240.65 239.56 239.21 235.29 236.41 232.87 236.51 230.86 240.06 229.86 240.02 226.06 241.17 224.16 243.17 224.84 249.36 225.67 252.88 224.25 253.9 224.97 259.17 226.41 260.98 226.56 264.52 225.25 265.93 226.36 269.32 227.09 272.03 222.89 273.8 218.48 275.93 217.61 279.55 217.94 280.96 221.6 282.94 222.52 285.38 222.71 287.3 221.3 290.74 223.62 289.41 224.98 289.36 230.29 285.21 233.8 282.61 232.28 281.36 232.4 280.83 235 281.92 239.88 283.52 240.68 284.02 242.43 283.37 244.1 281.43 243.89 280.69 246.33 277.92 246.47 277.03 248.9 275.9 248.76 274.52 245.66 275.04 242.06 270.63 241.72 269.14 237.28 266.69 239.26 264.03 239.12 263.7 240.72 261.49 243.3 250.72 240.38 245.96 239.73 244.1 240.79 240.65 239.56 Z" id="33"/>
<path d="M 539.98 148.65 538.56 148.78 536.64 144.81 536.22 142.71 537.09 140.72 538.57 141.61 538.07 144.31 539.98 148.65 Z M 533.49 139.9 530.21 140.23 527.13 138.11 529.32 137.28 532.27 138.15 536.69 137.59 542.12 137.74 542.98 139.03 539.59 139.18 537.28 140.07 535.98 139.31 533.49 139.9 Z M 511.62 141.57 509.89 139.23 510.62 135.52 515.69 134.95 521.25 136.16 523.25 135.78 526.46 136.49 527.04 139.12 523.58 139 520.96 140.04 518.99 139.25 516.04 140.62 511.62 141.57 Z M 559.99 115.3 558.27 115.4 558.04 113.15 558.6 110.91 560.17 110.72 560.87 114.26 559.99 115.3 Z M 564.72 128.45 564.87 126.87 568.1 127.75 567.65 128.84 564.72 128.45 Z M 562.09 116.05 561.08 114.59 562.49 111.92 565.89 111.9 568.01 114.5 566.46 116.4 567.33 118.26 569.85 118.2 571.66 119.78 570.61 121.08 567.85 120.96 567.33 119.41 564.26 120.71 563.73 119.07 564.37 117.36 562.09 116.05 Z M 564.1 135.84 563.11 135.27 563.55 131.36 567.16 129.52 572.26 131.57 574.4 133.61 576.11 134.28 576.05 135.65 573.72 136.37 571.41 135.63 568.53 135.68 567.22 136.45 564.1 135.84 Z M 563.43 88.31 563.11 85.01 565.32 80.32 564.98 79.21 568.28 72.67 572.21 68.59 574.48 68.75 570.79 73.02 570.74 74.87 573.55 76.27 574.01 78.99 572.88 84.28 571.69 86.47 567.32 88.69 566.95 90.07 569.1 92.41 571.34 92.04 573.16 87.5 576.24 86.92 576.25 82.72 581.54 79.5 584.98 78.84 586.11 82.16 585.24 87.9 581 90.3 579.16 90.6 576.8 92.72 578.9 95.05 583.28 96.68 585.12 96.88 585.12 100.59 583.05 100.91 581.05 99.42 578.23 99.55 574.09 98.13 571.92 98.54 571.15 101.04 571.95 101.66 572.07 104.55 571.45 106.48 573.16 111.27 577.06 118.53 580.06 121.3 577.39 121.14 577.3 119.86 573.58 118.2 571.02 112.79 567.95 111.11 567.49 110.05 568.55 105.17 568.02 103.9 568.54 100.51 566.84 100.19 565.17 96.83 565.52 93.78 566.9 91.52 564.58 90.96 564.72 88.36 563.43 88.31 Z M 576.78 66.88 578.46 64.29 581.36 61.39 583.43 60.69 585.36 63.51 584.14 68.05 582.4 70.56 578.57 71.1 577.75 70.08 577.68 67.51 576.78 66.88 Z" fill-rule="evenodd" id="82"/>
<path d="M 248.28 120.66 248.28 118.46 253.37 119.24 256.45 120.9 256.6 123.32 251.53 121.29 249.3 122.05 248.28 120.66 Z M 255.95 127.38 252.83 129.12 251.12 128.63 252.55 123.32 257.2 124.04 257.62 126.29 255.95 127.38 Z M 334.31 81.96 332.96 86.36 330.49 86.7 328.89 88.73 328.53 90.55 329.47 91.83 328.01 95.01 324.89 97.88 323.58 100.16 321.22 101.85 318.4 102.1 318.87 103.47 320.59 104.41 321.1 107.54 319.15 109.05 317.24 112.21 318.12 113.79 317.2 115.21 315.42 114.63 310.51 116.45 308.97 116.37 308.01 117.78 304.8 118.58 304.08 118.04 301.47 118.94 300.13 117.07 299.13 119.02 297.06 119.76 292.99 122.18 289.87 123.22 288.65 124.8 288.77 126.71 285.69 128.34 283.27 131.24 278.87 132.52 276.55 134.55 278.66 135.06 279 137.34 277.87 138.85 280.27 141.93 279.19 145.05 280.76 146.81 280.48 149.23 281.77 153.06 278.09 156.05 274.52 157.47 274.14 158.42 271.2 155.69 268.8 156.63 266.69 158.38 265.31 156.52 265.98 155.27 263.93 146.74 262.93 145.33 263.5 142.7 262.73 140.08 260.11 138.65 262 135.29 262.67 130.33 259.99 127.61 260.38 125.92 258.31 125.24 256.79 123.56 257.23 122.12 255.11 120.23 255.67 118.29 250.58 116.57 248.59 116.83 246.08 115.18 245.65 111.17 247.24 109.8 247.14 105.13 246.11 102.68 242.75 100.8 242.86 95.6 241.34 92.29 243.21 90.82 243.73 89.41 243.2 86.22 244.85 82.77 244.82 80.66 246.15 79.02 248.46 77.63 249.91 74.7 249.95 72.71 252.01 72.13 253.46 73 254.26 75.33 255.98 75.5 255.57 78.36 258.61 81.76 260.8 82.09 261.08 83.88 264.29 85.67 266.6 89.15 268.3 89.12 269.93 91.22 273.52 91.09 276.78 89.46 277.15 88.57 281.16 88.2 282.77 87.58 285.43 88.81 287.23 88.46 288.31 89.83 290.33 88.33 293.65 89.01 294.97 86.96 298.57 86.73 299.77 81.28 304.51 79.02 310.16 79.7 311.59 78.87 314.53 79.49 315.1 81.38 316.59 82.53 319.59 82.88 320.83 84.11 322.74 83.48 324.94 85.18 327.35 83.86 327.54 82.72 330.31 81.27 333.22 80.99 334.31 81.96 Z" fill-rule="evenodd" id="61"/>
<path d="M 198.99 227.51 198.92 226.16 200.2 223.57 199.55 222.34 199.1 218.41 199.5 216.57 205.44 216.81 205.62 216.03 207.64 216.99 208.97 213.82 208.92 212.11 210.01 209.78 212.68 210.32 215.43 210.05 217.64 213.11 222.1 214.63 224.76 213.74 225.06 214.74 228.46 216.24 231.15 214.84 233.04 215.06 233.35 216.58 236.04 218.88 236.51 222.54 237.37 223.87 239.77 224.68 241.17 224.16 240.02 226.06 240.06 229.86 236.51 230.86 236.41 232.87 239.21 235.29 240.65 239.56 235.72 240.01 234.27 242.13 229.28 241.52 225.79 240.62 224.12 240.68 221.47 239.5 219.81 237.78 217.11 236.68 210.93 235.75 201.19 234.96 198.62 233.33 199.05 231.13 201.53 228.86 201.5 227.6 198.99 227.51 Z" id="32"/>
</g>
</svg>